# xmcd CD database file
#
# Track frame offsets:
#	150
#	14163
#	30453
#	45348
#	61675
#	79808
#	101105
#	119672
#	136283
#	156348
#	171383
#
# Disc length: 2550 seconds
#
# Revision: 4
# Processed by: cddbd v1.5.2PL0 Copyright (c) Steve Scherf et al.
# Submitted via: CDex 1.70beta2
#
DISCID=9209f40b
DTITLE=Mark Wills - Mark Wills Greatest Hits
DYEAR=2002
DGENRE=Country
TTITLE0=Jacob's Ladder
TTITLE1=Places I've Never Been
TTITLE2=I Do (Cherish You)
TTITLE3=Don't Laugh At Me
TTITLE4=Wish You Were Here
TTITLE5=She's In Love
TTITLE6=Back At One
TTITLE7=Almost Doesn't Count
TTITLE8=I'm Not Gonna Do Anything Without You (Duet With Jamie O'Neal)
TTITLE9=19 Somethin'
TTITLE10=When You Think Of Me
EXTD=Ripped And Encoded By scanner1 YEAR: 2002
EXTT0=
EXTT1=
EXTT2=
EXTT3=
EXTT4=
EXTT5=
EXTT6=
EXTT7=
EXTT8=
EXTT9=
EXTT10=
PLAYORDER=
